<svg width="34" height="34" viewBox="0 0 34 34" fill="none" xmlns="http://www.w3.org/2000/svg">
<path d="M19.0196 33.1626L33.1921 19.0076C33.4502 18.7384 33.6525 18.4209 33.7874 18.0734C34.0709 17.3841 34.0709 16.611 33.7874 15.9218C33.6525 15.5743 33.4502 15.2568 33.1921 14.9876L19.0196 0.832573C18.7553 0.568615 18.4415 0.359232 18.0962 0.216379C17.7509 0.0735257 17.3808 -7.26447e-07 17.0071 -7.42785e-07C16.2522 -7.7578e-07 15.5283 0.299485 14.9946 0.832573C14.4608 1.36566 14.161 2.08868 14.161 2.84258C14.161 3.59648 14.4608 4.31951 14.9946 4.85259L24.3485 14.1666L2.83451 14.1666C2.08275 14.1666 1.36178 14.4648 0.830207 14.9958C0.298633 15.5267 -7.10168e-07 16.2468 -7.42988e-07 16.9976C-7.75808e-07 17.7484 0.298633 18.4685 0.830207 18.9994C1.36178 19.5303 2.08275 19.8286 2.83451 19.8286L24.3485 19.8286L14.9946 29.1426C14.7289 29.4058 14.518 29.7189 14.3741 30.0638C14.2302 30.4088 14.1561 30.7789 14.1561 31.1526C14.1561 31.5263 14.2302 31.8963 14.3741 32.2413C14.518 32.5863 14.7289 32.8994 14.9946 33.1626C15.2581 33.4279 15.5716 33.6386 15.917 33.7823C16.2624 33.926 16.6329 34 17.0071 34C17.3813 34 17.7517 33.926 18.0972 33.7823C18.4426 33.6386 18.7561 33.4279 19.0196 33.1626Z" fill="white"/>
</svg>
