<svg width="19" height="13" viewBox="0 0 19 13" fill="none" xmlns="http://www.w3.org/2000/svg">
<path d="M18.78 5.90572L14.0304 0.334289C13.941 0.22947 13.8292 0.145174 13.7028 0.0873972C13.5764 0.0296205 13.4385 -0.000217966 13.2989 3.54992e-06L2.84977 1.72293e-06C2.09396 1.59078e-06 1.36911 0.293496 0.834678 0.815918C0.300242 1.33834 -3.57891e-07 2.0469 -4.8707e-07 2.78572L-1.78592e-06 10.2143C-1.9151e-06 10.9531 0.300241 11.6617 0.834676 12.1841C1.36911 12.7065 2.09396 13 2.84977 13L13.2989 13C13.4385 13.0002 13.5764 12.9704 13.7028 12.9126C13.8292 12.8548 13.941 12.7705 14.0304 12.6657L18.78 7.09429C18.9221 6.92744 19 6.71715 19 6.5C19 6.28285 18.9221 6.07257 18.78 5.90572ZM12.8525 11.1429L2.84977 11.1429C2.59783 11.1429 2.35621 11.045 2.17807 10.8709C1.99992 10.6967 1.89984 10.4606 1.89984 10.2143L1.89985 2.78572C1.89985 2.53944 1.99993 2.30326 2.17807 2.12912C2.35622 1.95498 2.59783 1.85714 2.84977 1.85714L12.8525 1.85715L16.8136 6.5L12.8525 11.1429ZM10.1737 3.98357C10.0854 3.89654 9.9803 3.82746 9.86455 3.78032C9.74879 3.73318 9.62463 3.7089 9.49923 3.7089C9.37383 3.7089 9.24967 3.73318 9.13391 3.78032C9.01815 3.82746 8.91309 3.89654 8.82478 3.98357L7.59938 5.19072L6.37398 3.98357C6.19511 3.80872 5.9525 3.71049 5.69954 3.71049C5.44657 3.71049 5.20396 3.80872 5.02509 3.98357C4.84622 4.15843 4.74573 4.39558 4.74573 4.64286C4.74573 4.7653 4.7704 4.88654 4.81833 4.99966C4.86626 5.11278 4.93652 5.21557 5.02509 5.30214L6.25999 6.5L5.02509 7.69786C4.93606 7.78418 4.86539 7.88688 4.81716 8.00004C4.76893 8.11319 4.7441 8.23456 4.7441 8.35714C4.7441 8.47972 4.76893 8.6011 4.81716 8.71425C4.86539 8.8274 4.93606 8.93011 5.02509 9.01643C5.1134 9.10346 5.21846 9.17254 5.33422 9.21968C5.44997 9.26683 5.57413 9.2911 5.69954 9.2911C5.82494 9.2911 5.9491 9.26683 6.06485 9.21968C6.18061 9.17254 6.28567 9.10346 6.37398 9.01643L7.59938 7.80929L8.82478 9.01643C8.91309 9.10346 9.01815 9.17254 9.13391 9.21969C9.24966 9.26683 9.37383 9.2911 9.49923 9.2911C9.62463 9.2911 9.74879 9.26683 9.86454 9.21969C9.9803 9.17254 10.0854 9.10346 10.1737 9.01643C10.2627 8.93011 10.3334 8.82741 10.3816 8.71425C10.4298 8.6011 10.4547 8.47973 10.4547 8.35714C10.4547 8.23456 10.4298 8.11319 10.3816 8.00004C10.3334 7.88688 10.2627 7.78418 10.1737 7.69786L8.93877 6.5L10.1737 5.30214C10.2627 5.21582 10.3334 5.11312 10.3816 4.99997C10.4298 4.88681 10.4547 4.76544 10.4547 4.64286C10.4547 4.52028 10.4298 4.39891 10.3816 4.28575C10.3334 4.1726 10.2627 4.0699 10.1737 3.98357Z" fill="white"/>
</svg>
