<svg width="40" height="32" viewBox="0 0 40 32" fill="none" xmlns="http://www.w3.org/2000/svg">
<path d="M34.129 5.61876C34.129 5.61876 37.4527 8.94245 37.4527 14.4819C37.4527 20.0214 34.129 23.3451 34.129 23.3451" stroke="white" stroke-width="4" stroke-linecap="round" stroke-linejoin="round"/>
<path d="M2 20.0214V11.1582C2 9.9345 2.99206 8.94245 4.2158 8.94245H10.1923C10.6297 8.94245 11.0574 8.81296 11.4214 8.57031L20.7131 2.37587C22.1857 1.39419 24.158 2.44977 24.158 4.21952V26.9602C24.158 28.7299 22.1857 29.7855 20.7131 28.8037L11.4214 22.6093C11.0574 22.3666 10.6297 22.2372 10.1923 22.2372H4.2158C2.99206 22.2372 2 21.2452 2 20.0214Z" stroke="white" stroke-width="4"/>
</svg>
